<svg xmlns="http://www.w3.org/2000/svg" viewBox="0 0 230 104"><g fill="none" stroke="currentColor" stroke-width="2" stroke-linecap="round" stroke-linejoin="round" opacity="0.45"><ellipse cx="115" cy="55" rx="94" ry="40" transform="rotate(-7 115 55)"/><path d="M23 47 q-9 -2 -13 -9"/><path d="M207 63 q9 2 13 9"/><path d="M146 16 q20 -10 34 3 q-8 17 -30 11"/></g><g fill="currentColor" font-family="'VT323','SF Mono',monospace" font-size="60" letter-spacing="3"><text x="116" y="76" text-anchor="end">LEM</text><text x="168" y="76" text-anchor="start">N</text></g><g fill="none" stroke="currentColor" stroke-width="2.5" stroke-linecap="round" stroke-linejoin="round"><circle cx="142" cy="54" r="19"/><circle cx="142" cy="54" r="13"/><path d="M142 41 L142 54 M142 67 L142 54 M129 54 L142 54 M155 54 L142 54 M133 45 L142 54 M151 45 L142 54 M133 63 L142 54 M151 63 L142 54"/></g></svg>
