<svg xmlns="http://www.w3.org/2000/svg" viewBox="0 0 160 130"><g fill="none" stroke="currentColor" stroke-width="2" stroke-linecap="round" stroke-linejoin="round"><ellipse cx="80" cy="119" rx="44" ry="6"/><path d="M48 60 Q48 28 80 26 Q112 28 112 60 Q112 93 95 106 Q80 116 65 106 Q48 93 48 60 Z"/><path d="M50 50 Q52 35 66 34 Q80 29 94 34 Q108 35 110 50"/><path d="M53 48 q6 -8 13 -2 q7 -8 14 -2 q7 -7 14 2"/><circle cx="65" cy="42" r="1.5"/><circle cx="80" cy="39" r="1.5"/><circle cx="95" cy="42" r="1.5"/><path d="M48 64 q-7 1 -7 11 q3 5 8 2"/><path d="M112 64 q7 1 7 11 q-3 5 -8 2"/><path d="M57 60 q8 -4 15 -1"/><path d="M88 59 q7 -3 15 1"/><path d="M58 67 q7 4 14 1"/><path d="M88 67 q7 3 14 -1"/><path d="M80 64 L77 82 Q80 86 83 82"/><path d="M76 82 q-2 2 -1 3 M84 82 q2 2 1 3"/><path d="M68 95 Q80 103 92 95"/><path d="M71 98 Q80 101 89 98" opacity="0.6"/></g></svg>
