<svg xmlns="http://www.w3.org/2000/svg" viewBox="0 0 160 130"><g fill="none" stroke="currentColor" stroke-width="2" stroke-linecap="round" stroke-linejoin="round"><circle cx="40" cy="22" r="7"/><line x1="33" y1="22" x2="47" y2="22"/><circle cx="66" cy="20" r="7"/><line x1="59" y1="20" x2="73" y2="20"/><circle cx="94" cy="20" r="7"/><line x1="87" y1="20" x2="101" y2="20"/><circle cx="120" cy="22" r="7"/><line x1="113" y1="22" x2="127" y2="22"/><ellipse cx="80" cy="112" rx="52" ry="8"/><rect x="48" y="92" width="64" height="14" rx="4"/><rect x="50" y="78" width="60" height="14" rx="4"/><rect x="52" y="64" width="56" height="14" rx="4"/><path d="M64 64 V106 M80 64 V106 M96 64 V106" opacity="0.6"/><path d="M52 71 H108 M50 85 H110 M48 99 H112" opacity="0.6"/><rect x="72" y="55" width="16" height="9" rx="2"/></g></svg>
