<svg xmlns="http://www.w3.org/2000/svg" viewBox="0 0 160 130"><g fill="none" stroke="currentColor" stroke-width="2" stroke-linecap="round" stroke-linejoin="round"><ellipse cx="42" cy="65" rx="5" ry="16"/><ellipse cx="118" cy="65" rx="5" ry="16"/><path d="M42 49 Q80 58 118 49"/><path d="M42 81 Q80 72 118 81"/><path d="M48 50 L64 80 M58 49 L74 79 M68 49 L84 79 M78 49 L94 79 M88 50 L104 78 M98 51 L112 75"/><path d="M48 80 L64 50 M58 81 L74 51 M68 81 L84 51 M78 81 L94 51 M88 80 L104 52 M98 79 L112 55"/></g></svg>
